<svg width="40" height="40" fill="none" xmlns="http://www.w3.org/2000/svg"><path d="M10.094 28V16h4.312v12h-4.312zm2.156-13.063a2.182 2.182 0 0 1-1.484-.562 1.794 1.794 0 0 1-.641-1.406c0-.563.213-1.031.64-1.406A2.182 2.182 0 0 1 12.25 11a2.18 2.18 0 0 1 1.484.563c.428.374.641.843.641 1.406 0 .562-.213 1.031-.64 1.406a2.182 2.182 0 0 1-1.485.563zm8.666 6.313V28h-4.313V16h4.094v2.281h.125c.26-.76.719-1.357 1.375-1.789.662-.432 1.433-.648 2.313-.648.849 0 1.586.195 2.21.586.63.385 1.118.916 1.462 1.593.349.678.52 1.451.515 2.32V28h-4.312v-6.75c.005-.594-.146-1.06-.453-1.398-.302-.339-.724-.508-1.266-.508-.536 0-.96.169-1.273.508-.313.338-.472.804-.477 1.398z" opacity=".6" fill="#fff"/></svg>