<svg width="48" height="48" fill="none" xmlns="http://www.w3.org/2000/svg"><rect width="48" height="48" rx="16" fill="#fff" fill-opacity=".1"/><path d="M21.5 27.203c-.047-.896 0-1.633.14-2.21.141-.584.373-1.066.696-1.446a4.99 4.99 0 0 1 1.219-1.031c.515-.318.927-.657 1.234-1.016.313-.36.469-.784.469-1.273 0-.542-.188-.974-.563-1.297-.37-.328-.817-.492-1.343-.492-.51 0-.97.166-1.375.5-.401.333-.615.817-.641 1.453h-3.188c.026-1.042.276-1.904.75-2.586a4.297 4.297 0 0 1 1.883-1.524c.782-.333 1.643-.5 2.586-.5 1.031 0 1.945.172 2.742.516.802.338 1.43.83 1.883 1.476.453.646.68 1.425.68 2.336 0 .85-.198 1.578-.594 2.188-.396.604-.953 1.127-1.672 1.57-.479.297-.862.584-1.148.86a2.32 2.32 0 0 0-.617.976c-.12.38-.18.88-.18 1.5H21.5zm1.547 5.008c-.521 0-.966-.172-1.336-.516a1.703 1.703 0 0 1-.563-1.265c.006-.495.193-.914.563-1.258.37-.35.815-.524 1.336-.524.526 0 .974.175 1.344.524.37.344.552.763.547 1.258.005.494-.178.916-.547 1.265-.37.344-.818.516-1.344.516z" fill="#fff"/></svg>