<svg width="48" height="48" fill="none" xmlns="http://www.w3.org/2000/svg"><rect width="48" height="48" rx="16" fill="#fff" fill-opacity=".1"/><path d="M14.214 31v-1.994l4.66-4.315c.584-.562 1.034-1.057 1.349-1.483.315-.426.475-.9.48-1.419-.005-.575-.2-1.03-.589-1.361-.383-.337-.865-.505-1.444-.505-.601 0-1.089.179-1.464.537-.37.357-.556.852-.556 1.482h-2.627c0-.856.198-1.6.594-2.23a3.962 3.962 0 0 1 1.65-1.464c.703-.345 1.51-.518 2.422-.518.942 0 1.756.18 2.442.537.69.354 1.223.835 1.598 1.445.379.605.57 1.287.575 2.045.004.558-.1 1.087-.313 1.585-.209.495-.546 1.015-1.01 1.56-.465.545-1.083 1.17-1.854 1.873l-1.924 1.873v.09h5.344V31h-9.333zm10.144-2.301v-2.18l5.465-8.61h3.465v8.572h1.623v2.218h-1.623V31H30.64v-2.301h-6.283zm6.334-2.218v-5.555h-.102l-3.445 5.453v.102h3.547z" fill="#fff"/></svg>