<svg width="48" height="48" fill="none" xmlns="http://www.w3.org/2000/svg"><rect width="48" height="48" rx="16" fill="#fff" fill-opacity=".1"/><path d="M18.016 23.281h-2.131c-.054-.437-.23-.785-.528-1.044-.296-.258-.684-.388-1.164-.388-.636 0-1.136.232-1.5.695-.36.46-.541 1.107-.541 1.939 0 .866.182 1.523.545 1.969.367.443.861.664 1.483.664.463 0 .844-.117 1.142-.353.302-.236.49-.564.563-.985l2.13.013c-.04.387-.151.769-.336 1.146-.185.375-.44.716-.767 1.023a3.71 3.71 0 0 1-1.18.733c-.463.182-.995.273-1.594.273-.79 0-1.497-.173-2.122-.52a3.744 3.744 0 0 1-1.475-1.526c-.36-.667-.541-1.48-.541-2.437 0-.96.183-1.774.55-2.442.366-.667.862-1.175 1.487-1.521.625-.347 1.325-.52 2.1-.52.705 0 1.336.13 1.893.388a3.336 3.336 0 0 1 1.355 1.116c.35.489.56 1.081.63 1.777zm1.207-3.161h2.612l2.216 5.403h.102l2.216-5.404h2.612v8.728h-2.054v-5.361h-.072l-2.097 5.305h-1.312l-2.097-5.335h-.072v5.39h-2.054V20.12zm15.791 2.616c-.028-.313-.155-.556-.38-.729-.22-.176-.537-.264-.95-.264-.408 0-.715.078-.92.234a.717.717 0 0 0-.31.588c-.01.259.103.462.336.61.233.145.547.26.941.345l.75.17c.861.19 1.52.502 1.978.934.46.431.692.995.694 1.691-.002.83-.31 1.478-.92 1.944-.61.465-1.46.698-2.548.698-1.097 0-1.975-.247-2.634-.741-.656-.497-.991-1.256-1.005-2.276h2.02c.022.42.177.739.464.955.287.213.663.32 1.13.32.422 0 .753-.084.992-.252.239-.168.36-.385.362-.652-.003-.244-.116-.439-.34-.584-.225-.148-.577-.277-1.057-.387l-.912-.214c-.753-.173-1.348-.453-1.786-.84-.435-.388-.65-.914-.648-1.576-.003-.542.142-1.017.435-1.423.293-.406.696-.722 1.21-.946.517-.227 1.108-.341 1.773-.341.676 0 1.263.115 1.76.345.5.227.888.547 1.163.959.276.412.416.89.422 1.432h-2.02z" fill="#fff"/></svg>