<svg width="48" height="48" fill="none" xmlns="http://www.w3.org/2000/svg"><rect width="48" height="48" rx="16" fill="#fff" fill-opacity=".1"/><path d="M24 35l.46.888a1 1 0 0 1-.92 0L24 35zm7-17v-1a1 1 0 0 1 .984.82L31 18zm-14 0l-.984-.18A1 1 0 0 1 17 17v1zm-.012.064l.984.18-.984-.18zM31 19H17v-2h14v2zm-.972-.756l-.012-.064 1.968-.36.011.064-1.967.36zm-12.044-.064l-.012.064-1.967-.36.011-.064 1.968.36zm5.555 15.932l1.943-1.007.92 1.776-1.942 1.007-.92-1.776zm-1.02-1.007l1.941 1.007-.92 1.776-1.942-1.008.92-1.775zm-5.093-6.797a9.777 9.777 0 0 0 5.092 6.797l-.92 1.776a11.777 11.777 0 0 1-6.135-8.189l1.963-.384zm8.056 6.797a9.777 9.777 0 0 0 5.092-6.797l1.963.384a11.777 11.777 0 0 1-6.135 8.188l-.92-1.775zm-7.51-14.861a35.331 35.331 0 0 0-.529 8.204l-1.997.104a37.31 37.31 0 0 1 .559-8.668l1.967.36zm12.585 8.204a35.3 35.3 0 0 0-.53-8.204l1.968-.36a37.42 37.42 0 0 1 .56 8.668l-1.998-.104z" fill="#fff"/></svg>