<svg width="40" height="40" fill="none" xmlns="http://www.w3.org/2000/svg"><path d="M26.761 14.475a3.949 3.949 0 0 0 1.715-2.185 7.732 7.732 0 0 1-2.477.956A3.865 3.865 0 0 0 23.154 12c-2.15 0-3.896 1.77-3.896 3.95 0 .31.033.61.1.9-3.24-.166-6.111-1.736-8.036-4.13a3.986 3.986 0 0 0-.527 1.99c0 1.368.688 2.578 1.734 3.286a3.861 3.861 0 0 1-1.766-.492v.048c0 1.915 1.344 3.512 3.127 3.873a3.829 3.829 0 0 1-1.76.07c.496 1.569 1.935 2.71 3.641 2.741A7.755 7.755 0 0 1 10 25.873a10.946 10.946 0 0 0 5.975 1.774c7.17 0 11.092-6.018 11.092-11.238 0-.172-.004-.344-.012-.512A7.944 7.944 0 0 0 29 13.852c-.71.32-1.465.53-2.239.623z" fill="#fff" opacity=".6"/></svg>