<svg width="40" height="40" fill="none" xmlns="http://www.w3.org/2000/svg"><path d="M30.463 14.823c.095-.447-.116-.698-.615-.698h-2.515c-.576 0-.787.233-.96.572 0 0-1.36 2.7-3.013 4.4-.532.55-.802.715-1.095.715-.236 0-.345-.183-.345-.68v-4.344c0-.608-.077-.787-.615-.787h-4.031c-.307 0-.5.166-.5.393 0 .573.941.702.941 2.254v3.2c0 .645-.038.895-.364.895-.864 0-2.918-2.772-4.07-5.92-.23-.643-.48-.823-1.133-.823H9.634c-.365 0-.634.232-.634.572 0 .626.787 3.523 3.878 7.404C14.95 24.587 17.678 26 20.134 26c1.498 0 1.862-.232 1.862-.823v-2.003c0-.5.212-.715.519-.715.345 0 .955.103 2.38 1.413C26.585 25.374 26.7 26 27.621 26h2.822c.288 0 .557-.125.557-.572 0-.59-.826-1.646-2.093-2.897-.518-.644-1.363-1.342-1.631-1.664-.384-.375-.269-.59 0-.983 0 0 2.898-3.81 3.187-5.061z" fill="#fff" opacity=".6"/></svg>